<?xml version="1.0" encoding="utf-8"?>
<?xml-stylesheet type="text/xsl" href="rss1.xsl"?>
<rss version="2.0" xmlns:atom="http://www.w3.org/2005/Atom" xmlns:content="http://purl.org/rss/1.0/modules/content/" xmlns:dc="http://purl.org/dc/elements/1.1/" xmlns:media="http://search.yahoo.com/mrss/">
<channel>
 <title>Getty</title>
 <link>http://www.gettyimg.com/</link>
 <atom:link href="http://www.gettyimg.com/" rel="self" type="application/rss+xml" />

 
                <item>
                <title><![CDATA[【Cinema Center】Can someone upload these to google drive?]]></title>
                <link><![CDATA[https://sharemania.us/threads/can-someone-upload-these-to-google-drive.234704/]]></link>
                <description><![CDATA[<article>
<blockquote class="messageText SelectQuoteContainer ugc baseHtml">
<a href="https://links.dublaseries.net/tgljXzPOmIudzf0y/brupload" target="_blank" class="externalLink" rel="nofollow">https://links.dublaseries.net/tgljXzPOmIudzf0y/brupload</a><br>
<br>
<a href="https://links.dublaseries.net/7l9TtY66hAs22o1s/brupload" target="_blank" class="externalLink" rel="nofollow">https://links.dublaseries.net/7l9TtY66hAs22o1s/brupload</a><br>
<br>
<a href="https://links.dublaseries.net/6DZf4aOkDzTjTcmM/brupload" target="_blank" class="externalLink" rel="nofollow">https://links.dublaseries.net/6DZf4aOkDzTjTcmM/brupload</a>
<div class="messageTextEndMarker">&nbsp;</div>
</blockquote>
</article>]]></description>
                <author><![CDATA[KJason2003]]></author>
                </item>

                
                <item>
                <title><![CDATA[【UPSCALED】Avril Lavigne - He wasn't  [1080P Upscale]]]></title>
                <link><![CDATA[https://sharemania.us/threads/avril-lavigne-he-wasnt-1080p-upscale.234703/]]></link>
                <description><![CDATA[<article>
<blockquote class="messageText SelectQuoteContainer ugc baseHtml">
<img src="https://i.imgur.com/tkYPvMC.png" class="bbCodeImage LbImage" alt="[​IMG]" data-url="https://i.imgur.com/tkYPvMC.png" style=""> <img src="https://i.imgur.com/9Gl9JzO.png" class="bbCodeImage LbImage" alt="[​IMG]" data-url="https://i.imgur.com/9Gl9JzO.png" style=""> <img src="https://i.imgur.com/DtrzOqa.png" class="bbCodeImage LbImage" alt="[​IMG]" data-url="https://i.imgur.com/DtrzOqa.png" style=""> <img src="https://i.imgur.com/SR1IQs1.png" class="bbCodeImage LbImage" alt="[​IMG]" data-url="https://i.imgur.com/SR1IQs1.png" style=""> <img src="https://i.imgur.com/2ELXEN1.png" class="bbCodeImage LbImage" alt="[​IMG]" data-url="https://i.imgur.com/2ELXEN1.png" style=""> <img src="https://i.imgur.com/dDSmD2g.png" class="bbCodeImage LbImage" alt="[​IMG]" data-url="https://i.imgur.com/dDSmD2g.png" style=""> <br>
<br>
<div class="ToggleTriggerAnchor bbCodeSpoilerContainer">
<button type="button" class="button bbCodeSpoilerButton ToggleTrigger Tooltip JsOnly" data-target="> .SpoilerTarget"><span>Spoiler: <span class="SpoilerTitle">MediaInfo</span></span></button>
<div class="SpoilerTarget bbCodeSpoilerText">General<br>
Format version : Version 4<br>
File size : 1.23 GiB<br>
Duration : 2 min 54 s<br>
Overall bit rate : 60.5 Mb/s<br>
Writing application : Lavf60.14.101<br>
Writing library : Lavf60.14.101<br>
ErrorDetectionType : Per level 1<br>
SOFTWARE : Nandub v1.0rc2<br>
<br>
Video<br>
ID : 1<br>
Format : AVC<br>
Format/Info : Advanced Video Codec<br>
Format profile : High@L4.2<br>
Format settings : CABAC / 1 Ref Frames<br>
Format settings, CABAC : Yes<br>
Format settings, Reference fra : 1 frame<br>
Format settings, GOP : M=1, N=30<br>
Codec ID : V_MPEG4/ISO/AVC<br>
Duration : 2 min 54 s<br>
Bit rate : 56.1 Mb/s<br>
Width : 1 440 pixels<br>
Height : 1 080 pixels<br>
Display aspect ratio : 4:3<br>
Frame rate mode : Constant<br>
Frame rate : 23.976 (23976/1000) FPS<br>
Standard : Component<br>
Color space : YUV<br>
Chroma subsampling : 4:2:0<br>
Bit depth : 8 bits<br>
Scan type : Progressive<br>
Bits/(Pixel*Frame) : 1.504<br>
Stream size : 1.16 GiB (94%)<br>
Writing library : Lavc60.27.101 h264_amf<br>
Default : No<br>
Forced : No<br>
Color range : Limited<br>
Matrix coefficients : BT.709<br>
<br>
Audio<br>
ID : 2<br>
Format : PCM<br>
Format settings : Little / Signed<br>
Codec ID : A_PCM/INT/LIT<br>
Duration : 2 min 54 s<br>
Bit rate mode : Constant<br>
Bit rate : 2 304 kb/s<br>
Channel(s) : 2 channels<br>
Sampling rate : 48.0 kHz<br>
Bit depth : 24 bits<br>
Delay relative to video : -10 ms<br>
Stream size : 47.9 MiB (4%)<br>
Writing library : Lavc60.27.101 h264_amf<br>
Default : No<br>
Forced : No</div>
</div><br>
<div class="bbCodeBlock bbCodeVfcHH HiddenContent">
<div class="attribution type">Hidden Content:</div>
<blockquote>You must reply before you can see the hidden data contained here.</blockquote>
</div>
<div class="messageTextEndMarker">&nbsp;</div>
</blockquote>
</article>]]></description>
                <author><![CDATA[Avril1255]]></author>
                </item>

                
                <item>
                <title><![CDATA[【SD】Avril Lavigne - Sk8er Boi [SD Upscale]]]></title>
                <link><![CDATA[https://sharemania.us/threads/avril-lavigne-sk8er-boi-sd-upscale.234702/]]></link>
                <description><![CDATA[<article>
<blockquote class="messageText SelectQuoteContainer ugc baseHtml">
<img src="https://i.imgur.com/OE44ZYv.png" class="bbCodeImage LbImage" alt="[​IMG]" data-url="https://i.imgur.com/OE44ZYv.png" style=""> <img src="https://i.imgur.com/G9sqqUc.png" class="bbCodeImage LbImage" alt="[​IMG]" data-url="https://i.imgur.com/G9sqqUc.png" style=""> <img src="https://i.imgur.com/rp5sSoY.png" class="bbCodeImage LbImage" alt="[​IMG]" data-url="https://i.imgur.com/rp5sSoY.png" style=""> <img src="https://i.imgur.com/Ud5HzEi.png" class="bbCodeImage LbImage" alt="[​IMG]" data-url="https://i.imgur.com/Ud5HzEi.png" style=""> <img src="https://i.imgur.com/W6Q06fS.png" class="bbCodeImage LbImage" alt="[​IMG]" data-url="https://i.imgur.com/W6Q06fS.png" style=""> <br>
<br>
<div class="ToggleTriggerAnchor bbCodeSpoilerContainer">
<button type="button" class="button bbCodeSpoilerButton ToggleTrigger Tooltip JsOnly" data-target="> .SpoilerTarget"><span>Spoiler: <span class="SpoilerTitle">MediaInfo</span></span></button>
<div class="SpoilerTarget bbCodeSpoilerText">General<br>
Format version : Version 4<br>
File size : 1 015 MiB<br>
Duration : 3 min 51 s<br>
Overall bit rate : 36.7 Mb/s<br>
Writing application : Lavf60.14.101<br>
Writing library : Lavf60.14.101<br>
ErrorDetectionType : Per level 1<br>
<br>
Video<br>
ID : 1<br>
Format : AVC<br>
Format/Info : Advanced Video Codec<br>
Format profile : High@L4.2<br>
Format settings : CABAC / 1 Ref Frames<br>
Format settings, CABAC : Yes<br>
Format settings, Reference fra : 1 frame<br>
Format settings, GOP : M=1, N=30<br>
Codec ID : V_MPEG4/ISO/AVC<br>
Duration : 3 min 51 s<br>
Bit rate : 33.7 Mb/s<br>
Width : 720 pixels<br>
Height : 576 pixels<br>
Display aspect ratio : 4:3<br>
Frame rate mode : Constant<br>
Frame rate : 25.000 FPS<br>
Standard : Component<br>
Color space : YUV<br>
Chroma subsampling : 4:2:0<br>
Bit depth : 8 bits<br>
Scan type : Interlaced<br>
Original scan type : Progressive<br>
Scan type, store method : Interleaved fields<br>
Scan order : Top Field First<br>
Bits/(Pixel*Frame) : 3.251<br>
Stream size : 931 MiB (92%)<br>
Writing library : Lavc60.27.101 h264_amf<br>
Default : No<br>
Forced : No<br>
Color range : Limited<br>
Matrix coefficients : BT.709<br>
<br>
Audio<br>
ID : 2<br>
Format : PCM<br>
Format settings : Little / Signed<br>
Codec ID : A_PCM/INT/LIT<br>
Duration : 3 min 51 s<br>
Bit rate mode : Constant<br>
Bit rate : 2 304 kb/s<br>
Channel(s) : 2 channels<br>
Sampling rate : 48.0 kHz<br>
Bit depth : 24 bits<br>
Stream size : 63.6 MiB (6%)<br>
Writing library : Lavc60.27.101 pcm_s24le<br>
Default : No<br>
Forced : No</div>
</div><br>
<div class="bbCodeBlock bbCodeVfcHH HiddenContent">
<div class="attribution type">Hidden Content:</div>
<blockquote>You must reply before you can see the hidden data contained here.</blockquote>
</div>
<div class="messageTextEndMarker">&nbsp;</div>
</blockquote>
</article>]]></description>
                <author><![CDATA[Avril1255]]></author>
                </item>

                </channel></rss>